<?xml version="1.0" standalone="no"?>
<!DOCTYPE svg PUBLIC "-//W3C//DTD SVG 20010904//EN"
 "http://www.w3.org/TR/2001/REC-SVG-20010904/DTD/svg10.dtd">
<svg version="1.0" xmlns="http://www.w3.org/2000/svg"
 width="152.000000pt" height="152.000000pt" viewBox="0 0 152.000000 152.000000"
 preserveAspectRatio="xMidYMid meet">

<g transform="translate(0.000000,152.000000) scale(0.100000,-0.100000)"
fill="#000000" stroke="none">
<path d="M862 1153 c-73 -181 -136 -334 -140 -341 -5 -7 -37 59 -83 175 l-75
188 -77 3 c-47 2 -77 -1 -77 -7 0 -6 32 -88 71 -183 39 -95 91 -224 116 -285
44 -109 55 -127 66 -100 2 6 66 165 142 352 76 187 153 378 171 424 19 46 34
87 34 92 0 38 -34 -34 -148 -318z"/>
<path d="M957 1173 c-5 -8 -136 -332 -337 -830 -65 -161 -114 -295 -109 -299
5 -3 14 7 19 22 35 92 154 380 160 387 4 4 17 -20 31 -54 13 -33 29 -61 34
-62 10 0 353 804 354 831 1 13 -144 18 -152 5z"/>
</g>
</svg>
