<?xml version="1.0" standalone="no"?>
<!DOCTYPE svg PUBLIC "-//W3C//DTD SVG 20010904//EN"
 "http://www.w3.org/TR/2001/REC-SVG-20010904/DTD/svg10.dtd">
<svg version="1.0" xmlns="http://www.w3.org/2000/svg"
 width="263.000000pt" height="191.000000pt" viewBox="0 0 263.000000 191.000000"
 preserveAspectRatio="xMidYMid meet">

<g transform="translate(0.000000,191.000000) scale(0.100000,-0.100000)"
fill="#000000" stroke="none">
<path d="M1455 1437 c-53 -133 -116 -289 -140 -346 l-43 -104 -19 44 c-11 24
-46 110 -78 192 l-59 147 -77 0 -78 0 85 -207 c47 -115 102 -249 122 -300 l37
-91 47 116 c26 65 107 267 181 450 74 182 131 334 127 337 -4 3 -51 -104 -105
-238z"/>
<path d="M1417 1133 c-53 -131 -155 -383 -226 -560 -72 -178 -131 -327 -131
-333 0 -32 24 18 100 209 46 116 86 208 90 206 4 -3 18 -32 30 -65 12 -33 25
-62 29 -64 3 -2 68 145 144 328 76 182 155 373 177 424 l39 92 -78 0 -78 0
-96 -237z"/>
<path d="M1863 615 c0 -44 2 -61 4 -37 2 23 2 59 0 80 -2 20 -4 1 -4 -43z"/>
<path d="M1549 658 c-3 -7 -2 -33 2 -58 l6 -45 1 43 c2 32 6 42 20 43 13 0 14
2 2 6 -8 3 -18 10 -21 15 -3 5 -8 4 -10 -4z"/>
<path d="M1458 643 c7 -3 16 -2 19 1 4 3 -2 6 -13 5 -11 0 -14 -3 -6 -6z"/>
<path d="M1637 643 c-17 -16 -5 -42 23 -52 17 -5 30 -6 30 -1 0 5 -10 10 -22
12 -35 5 -35 36 -1 41 27 4 28 4 2 6 -14 0 -29 -2 -32 -6z"/>
<path d="M1770 641 c22 -6 25 -13 25 -49 0 -23 3 -42 8 -42 12 0 8 75 -5 88
-7 7 -21 12 -32 11 -18 -1 -17 -2 4 -8z"/>
<path d="M2118 643 c7 -3 16 -2 19 1 4 3 -2 6 -13 5 -11 0 -14 -3 -6 -6z"/>
<path d="M2250 643 c8 -3 19 -11 23 -17 6 -7 7 -6 4 4 -2 8 -12 16 -23 17 -13
2 -15 1 -4 -4z"/>
<path d="M2342 638 c-7 -7 -12 -26 -12 -43 0 -36 16 -55 45 -54 17 1 16 2 -5
8 -14 4 -26 15 -28 24 -3 13 4 17 32 17 28 0 36 4 35 18 0 10 -3 12 -6 5 -2
-7 -18 -13 -35 -13 -23 0 -29 4 -26 18 2 11 13 17 30 17 15 -1 24 3 22 7 -8
12 -38 10 -52 -4z"/>
<path d="M2450 595 c0 -32 2 -56 4 -54 8 7 10 98 3 105 -4 4 -7 -19 -7 -51z"/>
<path d="M2560 641 c22 -6 25 -13 25 -49 0 -23 3 -42 8 -42 12 0 8 75 -5 88
-7 7 -21 12 -32 11 -18 -1 -17 -2 4 -8z"/>
<path d="M2211 588 c1 -55 5 -50 11 15 2 20 0 37 -4 37 -4 0 -7 -24 -7 -52z"/>
<path d="M1436 601 c-3 -4 6 -6 19 -3 14 2 25 6 25 8 0 8 -39 4 -44 -5z"/>
<path d="M1758 603 c7 -3 16 -2 19 1 4 3 -2 6 -13 5 -11 0 -14 -3 -6 -6z"/>
<path d="M2082 590 c0 -14 2 -19 5 -12 2 6 2 18 0 25 -3 6 -5 1 -5 -13z"/>
<path d="M2536 601 c-4 -5 3 -7 14 -4 23 6 26 13 6 13 -8 0 -17 -4 -20 -9z"/>
<path d="M1731 579 c-1 -19 26 -45 36 -35 3 3 1 6 -6 6 -6 0 -16 10 -21 23 -6
15 -9 17 -9 6z"/>
<path d="M2010 571 c0 -7 -4 -9 -10 -6 -5 3 -10 2 -10 -4 0 -5 4 -12 9 -15 10
-6 25 24 16 32 -3 3 -5 0 -5 -7z"/>
<path d="M2130 553 c-14 -7 -18 -13 -10 -13 17 0 47 17 40 23 -3 2 -16 -2 -30
-10z"/>
<path d="M1438 548 c5 -5 16 -8 23 -6 8 3 3 7 -10 11 -17 4 -21 3 -13 -5z"/>
<path d="M1637 548 c2 -5 13 -8 23 -8 10 0 21 3 23 8 3 4 -8 7 -23 7 -15 0
-26 -3 -23 -7z"/>
<path d="M2538 548 c5 -5 16 -8 23 -6 8 3 3 7 -10 11 -17 4 -21 3 -13 -5z"/>
<path d="M1568 543 c7 -3 16 -2 19 1 4 3 -2 6 -13 5 -11 0 -14 -3 -6 -6z"/>
</g>
</svg>
